<mxfile host="Electron" modified="2024-01-25T11:31:21.278Z" agent="Mozilla/5.0 (Macintosh; Intel Mac OS X 10_15_7) AppleWebKit/537.36 (KHTML, like Gecko) draw.io/22.1.21 Chrome/120.0.6099.109 Electron/28.1.0 Safari/537.36" etag="pzFavjGMAZB6d4IX-X-q" version="22.1.21" type="device">
  <diagram name="Page-1" id="O6sBWOfz2bUCuo58S4gg">
    <mxGraphModel dx="1182" dy="486" grid="1" gridSize="10" guides="1" tooltips="1" connect="1" arrows="1" fold="1" page="1" pageScale="1" pageWidth="1169" pageHeight="827" math="0" shadow="0">
      <root>
        <mxCell id="0" />
        <mxCell id="1" parent="0" />
        <mxCell id="aTlmoTqcXMnjitFqs7Kw-1" value="" style="sketch=0;points=[[0.015,0.015,0],[0.985,0.015,0],[0.985,0.985,0],[0.015,0.985,0],[0.25,0,0],[0.5,0,0],[0.75,0,0],[1,0.25,0],[1,0.5,0],[1,0.75,0],[0.75,1,0],[0.5,1,0],[0.25,1,0],[0,0.75,0],[0,0.5,0],[0,0.25,0]];verticalLabelPosition=bottom;html=1;verticalAlign=top;aspect=fixed;align=center;pointerEvents=1;shape=mxgraph.cisco19.rect;prIcon=l2_switch;fillColor=#FAFAFA;strokeColor=#5c5c5c;" parent="1" vertex="1">
          <mxGeometry x="561.75" y="80" width="80" height="80" as="geometry" />
        </mxCell>
        <mxCell id="aTlmoTqcXMnjitFqs7Kw-6" value="" style="sketch=0;points=[[0.015,0.015,0],[0.985,0.015,0],[0.985,0.985,0],[0.015,0.985,0],[0.25,0,0],[0.5,0,0],[0.75,0,0],[1,0.25,0],[1,0.5,0],[1,0.75,0],[0.75,1,0],[0.5,1,0],[0.25,1,0],[0,0.75,0],[0,0.5,0],[0,0.25,0]];verticalLabelPosition=bottom;html=1;verticalAlign=top;aspect=fixed;align=center;pointerEvents=1;shape=mxgraph.cisco19.rect;prIcon=l2_switch;fillColor=#FAFAFA;strokeColor=#5c5c5c;" parent="1" vertex="1">
          <mxGeometry x="661.75" y="309" width="80" height="80" as="geometry" />
        </mxCell>
        <mxCell id="aTlmoTqcXMnjitFqs7Kw-7" value="" style="sketch=0;points=[[0.015,0.015,0],[0.985,0.015,0],[0.985,0.985,0],[0.015,0.985,0],[0.25,0,0],[0.5,0,0],[0.75,0,0],[1,0.25,0],[1,0.5,0],[1,0.75,0],[0.75,1,0],[0.5,1,0],[0.25,1,0],[0,0.75,0],[0,0.5,0],[0,0.25,0]];verticalLabelPosition=bottom;html=1;verticalAlign=top;aspect=fixed;align=center;pointerEvents=1;shape=mxgraph.cisco19.rect;prIcon=l2_switch;fillColor=#FAFAFA;strokeColor=#5c5c5c;" parent="1" vertex="1">
          <mxGeometry x="462" y="309" width="80" height="80" as="geometry" />
        </mxCell>
        <mxCell id="aTlmoTqcXMnjitFqs7Kw-42" style="edgeStyle=orthogonalEdgeStyle;rounded=0;orthogonalLoop=1;jettySize=auto;html=1;exitX=0.5;exitY=1;exitDx=0;exitDy=0;endArrow=none;endFill=0;strokeColor=#5c5c5c;flowAnimation=1;" parent="1" source="aTlmoTqcXMnjitFqs7Kw-8" target="aTlmoTqcXMnjitFqs7Kw-27" edge="1">
          <mxGeometry relative="1" as="geometry" />
        </mxCell>
        <mxCell id="aTlmoTqcXMnjitFqs7Kw-8" value="&lt;b style=&quot;&quot;&gt;&lt;font color=&quot;#5c5c5c&quot;&gt;Arista cEOS&lt;/font&gt;&lt;/b&gt;" style="rounded=1;whiteSpace=wrap;html=1;fillColor=#d5e8d4;strokeColor=#82b366;" parent="1" vertex="1">
          <mxGeometry x="442" y="389" width="120" height="30" as="geometry" />
        </mxCell>
        <mxCell id="aTlmoTqcXMnjitFqs7Kw-41" style="edgeStyle=orthogonalEdgeStyle;rounded=0;orthogonalLoop=1;jettySize=auto;html=1;exitX=0.5;exitY=1;exitDx=0;exitDy=0;endArrow=none;endFill=0;strokeColor=#5c5c5c;flowAnimation=1;" parent="1" target="aTlmoTqcXMnjitFqs7Kw-36" edge="1">
          <mxGeometry relative="1" as="geometry">
            <mxPoint x="702" y="419" as="sourcePoint" />
          </mxGeometry>
        </mxCell>
        <mxCell id="aTlmoTqcXMnjitFqs7Kw-19" style="rounded=0;orthogonalLoop=1;jettySize=auto;html=1;exitX=0.5;exitY=1;exitDx=0;exitDy=0;entryX=0.5;entryY=0;entryDx=0;entryDy=0;entryPerimeter=0;endArrow=none;endFill=0;strokeColor=#5c5c5c;flowAnimation=1;" parent="1" source="aTlmoTqcXMnjitFqs7Kw-14" target="aTlmoTqcXMnjitFqs7Kw-7" edge="1">
          <mxGeometry relative="1" as="geometry" />
        </mxCell>
        <mxCell id="aTlmoTqcXMnjitFqs7Kw-20" style="rounded=0;orthogonalLoop=1;jettySize=auto;html=1;exitX=0.5;exitY=1;exitDx=0;exitDy=0;entryX=0.5;entryY=0;entryDx=0;entryDy=0;entryPerimeter=0;endArrow=none;endFill=0;strokeColor=#5c5c5c;flowAnimation=1;" parent="1" source="aTlmoTqcXMnjitFqs7Kw-14" target="aTlmoTqcXMnjitFqs7Kw-6" edge="1">
          <mxGeometry relative="1" as="geometry" />
        </mxCell>
        <mxCell id="aTlmoTqcXMnjitFqs7Kw-14" value="&lt;b style=&quot;&quot;&gt;&lt;font color=&quot;#5c5c5c&quot;&gt;Arista cEOS&lt;/font&gt;&lt;/b&gt;" style="rounded=1;whiteSpace=wrap;html=1;fillColor=#d5e8d4;strokeColor=#82b366;" parent="1" vertex="1">
          <mxGeometry x="541.75" y="160" width="120" height="30" as="geometry" />
        </mxCell>
        <mxCell id="aTlmoTqcXMnjitFqs7Kw-27" value="" style="shadow=0;dashed=0;html=1;strokeColor=none;fillColor=#4495D1;labelPosition=center;verticalLabelPosition=bottom;verticalAlign=top;align=center;outlineConnect=0;shape=mxgraph.veeam.2d.virtual_machine;" parent="1" vertex="1">
          <mxGeometry x="482" y="540" width="40" height="40" as="geometry" />
        </mxCell>
        <mxCell id="aTlmoTqcXMnjitFqs7Kw-30" value="&lt;div style=&quot;&quot;&gt;&lt;b style=&quot;color: rgb(92, 92, 92); font-family: Tahoma; background-color: initial;&quot;&gt;Spine 1&lt;/b&gt;&lt;/div&gt;&lt;font color=&quot;#5c5c5c&quot; face=&quot;Tahoma&quot;&gt;&lt;div style=&quot;&quot;&gt;10.10.100.1/32&lt;/div&gt;&lt;/font&gt;" style="rounded=1;whiteSpace=wrap;html=1;align=center;fillColor=#f5f5f5;fontColor=#333333;strokeColor=#666666;dashed=1;dashPattern=8 8;" parent="1" vertex="1">
          <mxGeometry x="465.5" y="108" width="85" height="42" as="geometry" />
        </mxCell>
        <mxCell id="aTlmoTqcXMnjitFqs7Kw-32" value="&lt;div style=&quot;&quot;&gt;&lt;b style=&quot;color: rgb(92, 92, 92); font-family: Tahoma; background-color: initial;&quot;&gt;Leaf 1&lt;/b&gt;&lt;/div&gt;&lt;font color=&quot;#5c5c5c&quot; face=&quot;Tahoma&quot;&gt;&lt;div style=&quot;&quot;&gt;10.10.110.1/32&lt;/div&gt;&lt;/font&gt;" style="rounded=1;whiteSpace=wrap;html=1;align=center;fillColor=#f5f5f5;fontColor=#333333;strokeColor=#666666;dashed=1;dashPattern=8 8;" parent="1" vertex="1">
          <mxGeometry x="368" y="337" width="85" height="43" as="geometry" />
        </mxCell>
        <mxCell id="aTlmoTqcXMnjitFqs7Kw-33" value="&lt;div style=&quot;&quot;&gt;&lt;b style=&quot;color: rgb(92, 92, 92); font-family: Tahoma; background-color: initial;&quot;&gt;Leaf 2&lt;/b&gt;&lt;/div&gt;&lt;font color=&quot;#5c5c5c&quot; face=&quot;Tahoma&quot;&gt;&lt;div style=&quot;&quot;&gt;10.10.110.2/32&lt;/div&gt;&lt;/font&gt;" style="rounded=1;whiteSpace=wrap;html=1;align=center;fillColor=#f5f5f5;fontColor=#333333;strokeColor=#666666;dashed=1;dashPattern=8 8;" parent="1" vertex="1">
          <mxGeometry x="750.5" y="337" width="85" height="43" as="geometry" />
        </mxCell>
        <mxCell id="aTlmoTqcXMnjitFqs7Kw-36" value="" style="shadow=0;dashed=0;html=1;strokeColor=none;fillColor=#4495D1;labelPosition=center;verticalLabelPosition=bottom;verticalAlign=top;align=center;outlineConnect=0;shape=mxgraph.veeam.2d.virtual_machine;" parent="1" vertex="1">
          <mxGeometry x="682" y="540" width="40" height="40" as="geometry" />
        </mxCell>
        <mxCell id="aTlmoTqcXMnjitFqs7Kw-43" value="&lt;div style=&quot;&quot;&gt;&lt;font face=&quot;Tahoma&quot; color=&quot;#5c5c5c&quot;&gt;&lt;b&gt;Host 1&amp;nbsp;&lt;/b&gt;&lt;/font&gt;&lt;/div&gt;&lt;div style=&quot;&quot;&gt;&lt;font face=&quot;Tahoma&quot; color=&quot;#5c5c5c&quot;&gt;10.10.120.1/24&lt;/font&gt;&lt;/div&gt;" style="rounded=1;whiteSpace=wrap;html=1;align=center;" parent="1" vertex="1">
          <mxGeometry x="453" y="580" width="97.5" height="40" as="geometry" />
        </mxCell>
        <mxCell id="aTlmoTqcXMnjitFqs7Kw-44" value="&lt;div style=&quot;&quot;&gt;&lt;font face=&quot;Tahoma&quot; color=&quot;#5c5c5c&quot;&gt;&lt;b&gt;Host 2&amp;nbsp;&lt;/b&gt;&lt;/font&gt;&lt;/div&gt;&lt;div style=&quot;&quot;&gt;&lt;font face=&quot;Tahoma&quot; color=&quot;#5c5c5c&quot;&gt;10.10.120.2/24&lt;/font&gt;&lt;/div&gt;" style="rounded=1;whiteSpace=wrap;html=1;align=center;" parent="1" vertex="1">
          <mxGeometry x="653" y="580" width="97.5" height="40" as="geometry" />
        </mxCell>
        <mxCell id="2" value="&lt;b style=&quot;&quot;&gt;&lt;font color=&quot;#5c5c5c&quot;&gt;Arista cEOS&lt;/font&gt;&lt;/b&gt;" style="rounded=1;whiteSpace=wrap;html=1;fillColor=#d5e8d4;strokeColor=#82b366;" parent="1" vertex="1">
          <mxGeometry x="642" y="389" width="120" height="30" as="geometry" />
        </mxCell>
        <mxCell id="9c6Ar1EA6Zs8SLTOgEZa-5" value="" style="edgeStyle=orthogonalEdgeStyle;rounded=0;orthogonalLoop=1;jettySize=auto;html=1;endArrow=none;endFill=0;fillColor=#fff2cc;strokeColor=#d6b656;" edge="1" parent="1" source="WrZud4rfimy0aiVwPLGJ-2" target="9c6Ar1EA6Zs8SLTOgEZa-3">
          <mxGeometry relative="1" as="geometry" />
        </mxCell>
        <mxCell id="WrZud4rfimy0aiVwPLGJ-2" value="&lt;font color=&quot;#5c5c5c&quot;&gt;&lt;b&gt;VNI 5000&lt;/b&gt;&lt;/font&gt;" style="rounded=1;whiteSpace=wrap;html=1;fillColor=#fff2cc;strokeColor=#d6b656;dashed=1;dashPattern=12 12;" parent="1" vertex="1">
          <mxGeometry x="565.44" y="640" width="72.63" height="20" as="geometry" />
        </mxCell>
        <mxCell id="9c6Ar1EA6Zs8SLTOgEZa-4" value="" style="edgeStyle=orthogonalEdgeStyle;rounded=0;orthogonalLoop=1;jettySize=auto;html=1;endArrow=none;endFill=0;fillColor=#fff2cc;strokeColor=#d6b656;" edge="1" parent="1" source="9c6Ar1EA6Zs8SLTOgEZa-2" target="WrZud4rfimy0aiVwPLGJ-2">
          <mxGeometry relative="1" as="geometry" />
        </mxCell>
        <mxCell id="9c6Ar1EA6Zs8SLTOgEZa-2" value="&lt;font color=&quot;#5c5c5c&quot;&gt;&lt;b&gt;VLAN 50&lt;/b&gt;&lt;/font&gt;" style="rounded=1;whiteSpace=wrap;html=1;fillColor=#fff2cc;strokeColor=#d6b656;dashed=1;dashPattern=12 12;" vertex="1" parent="1">
          <mxGeometry x="465.43000000000006" y="640" width="72.63" height="20" as="geometry" />
        </mxCell>
        <mxCell id="9c6Ar1EA6Zs8SLTOgEZa-3" value="&lt;font color=&quot;#5c5c5c&quot;&gt;&lt;b&gt;VLAN 50&lt;/b&gt;&lt;/font&gt;" style="rounded=1;whiteSpace=wrap;html=1;fillColor=#fff2cc;strokeColor=#d6b656;dashed=1;dashPattern=12 12;" vertex="1" parent="1">
          <mxGeometry x="665.4300000000001" y="640" width="72.63" height="20" as="geometry" />
        </mxCell>
        <mxCell id="9c6Ar1EA6Zs8SLTOgEZa-6" value="&lt;div style=&quot;&quot;&gt;&lt;font face=&quot;Tahoma&quot; color=&quot;#5c5c5c&quot;&gt;&lt;b&gt;AS : 65001&lt;/b&gt;&lt;/font&gt;&lt;/div&gt;" style="rounded=1;whiteSpace=wrap;html=1;align=center;dashed=1;dashPattern=8 8;" vertex="1" parent="1">
          <mxGeometry x="465.5" y="80" width="85" height="20" as="geometry" />
        </mxCell>
        <mxCell id="9c6Ar1EA6Zs8SLTOgEZa-7" value="&lt;div style=&quot;&quot;&gt;&lt;font face=&quot;Tahoma&quot; color=&quot;#5c5c5c&quot;&gt;&lt;b&gt;AS : 65201&lt;/b&gt;&lt;/font&gt;&lt;/div&gt;" style="rounded=1;whiteSpace=wrap;html=1;align=center;dashed=1;dashPattern=8 8;" vertex="1" parent="1">
          <mxGeometry x="750.5" y="309" width="85" height="20" as="geometry" />
        </mxCell>
        <mxCell id="9c6Ar1EA6Zs8SLTOgEZa-8" value="&lt;div style=&quot;&quot;&gt;&lt;font face=&quot;Tahoma&quot; color=&quot;#5c5c5c&quot;&gt;&lt;b&gt;AS : 65101&lt;/b&gt;&lt;/font&gt;&lt;/div&gt;" style="rounded=1;whiteSpace=wrap;html=1;align=center;dashed=1;dashPattern=8 8;" vertex="1" parent="1">
          <mxGeometry x="368" y="309" width="85" height="20" as="geometry" />
        </mxCell>
      </root>
    </mxGraphModel>
  </diagram>
</mxfile>
